<?xml version="1.0" encoding="UTF-8"?> <!-- Generator: Adobe Illustrator 25.0.0, SVG Export Plug-In . SVG Version: 6.00 Build 0) --> <svg xmlns="http://www.w3.org/2000/svg" xmlns:xlink="http://www.w3.org/1999/xlink" version="1.1" id="Layer_1" x="0px" y="0px" viewBox="0 0 583.85 224.33" style="enable-background:new 0 0 583.85 224.33;" xml:space="preserve"> <style type="text/css"> .st0{fill:#FFFFFF;} </style> <g> <g> <path class="st0" d="M125.49,53.19c36.57,2.53,65.45,32.99,65.45,70.2c0,38.86-31.51,70.37-70.37,70.37s-70.37-31.51-70.37-70.37 c0-3.62,0.27-7.18,0.8-10.65l7.51,1.55c-0.43,2.97-0.66,6.01-0.66,9.1c0,34.64,28.08,62.72,62.72,62.72s62.72-28.08,62.72-62.72 c0-30.52-21.8-55.94-50.67-61.56L125.49,53.19z"></path> <path class="st0" d="M33.39,83.55c7.76,0.21,15.51,1.09,23.12,2.65c15.26,3.12,30,8.98,43.05,17.52c0.32,0.21,0.64,0.48,0.98,0.65 c21,14.05,37.53,35.79,44.73,60.01c-10.97-17.01-26.98-31.21-44.85-40.7c-17.77-9.44-37.52-14.84-57.52-17.07 c-0.12-0.01-0.24-0.03-0.36-0.04c-0.34-0.04-4.08-0.34-4.08-0.34l-1.58-3.45c-1.75-4.07-3.51-8.13-5.26-12.2 c-0.42-0.98-0.84-1.95-1.26-2.93l-1.83-4.29L33.39,83.55z"></path> <path class="st0" d="M63.9,78.99c-0.96-4.62-2.24-9.2-3.37-13.78c-0.58-2.34-1.15-4.68-1.73-7.02l-1.87-7.32 c3.24,1.4,6.5,2.77,9.73,4.2c0.77,0.34,1.54,0.69,2.3,1.04c3.17,1.45,6.27,3.04,9.33,4.7c3.7,2.01,7.34,4.15,10.9,6.4 c3.18,2.01,6.3,4.12,9.36,6.32c9.56,6.88,18.58,14.68,26.28,23.62c10.4,12.07,18.43,26.37,22.2,41.9 c1.98,8.17,2.8,16.93,2.18,25.32c-3.39-14.45-10.19-28.31-19.28-40.01c-9.52-12.26-21.58-22.4-35-30.15 c-8.91-5.15-18.4-9.26-28.2-12.35c0,0-2.4-0.7-2.4-0.7C64.19,80.43,64.05,79.71,63.9,78.99z"></path> <path class="st0" d="M93.9,59.48c17.4,7.7,31.99,21.21,42.02,37.38c10.06,16.22,15.6,35.66,17.24,54.68 c3.54-22.88-1.52-47.32-12.37-67.77c-10.26-19.35-25.46-35.81-42.89-49.1l-5.78-4.09v11.32c0,4.93,0,9.87,0,14.8l0,1.89 L93.9,59.48z"></path> </g> <path class="st0" d="M208.45,156.76c0,0,16.13,0,16.13,0c0-5.85,0.07-11.71-0.03-17.56c-0.05-3.27-0.51-6.71,0.49-9.9 c0.46-1.45,1.32-2.96,2.77-3.61c2.15-0.96,4.21,0.98,5.51,2.5c7.18,8.41,20.71,28.57,20.71,28.57h18.66l-30.35-43.34l28.71-28.3 h-20.1l-26.39,28.81V86.56c0,0,0.55-1.44-4.17-1.44c-4.72,0-11.96,2.05-11.96,7.07S208.45,156.76,208.45,156.76z"></path> <path class="st0" d="M277.32,115.78c0,0,0.82-16.82,22.87-16.61s22.04,11.33,22.04,12.74s0,27.76,0,27.76s-0.21,17.09-23.17,17.09 c-22.97,0-23.69-11.14-23.69-16.88c0-3.88,1.79-7.77,4.22-10.73c5.55-6.78,13.97-7.28,22.03-8.2c0,0,8.2-1.37,7.49-5.57 c-0.72-4.2-12.25-7.04-17.03,0.51L277.32,115.78z M307.05,128.78c-0.97,0.19-1.93,0.39-2.89,0.61c-3.96,0.88-7.92,2.04-11.42,4.13 c-1.3,0.78-2.57,1.73-3.24,3.08c-0.56,1.12-0.66,2.41-0.56,3.66c0.09,1.15,0.36,2.32,1.03,3.27c1.46,2.06,4.32,2.49,6.85,2.45 c2.75-0.05,5.62-0.49,7.81-2.15c2.19-1.66,3.42-4.35,3.86-7.07c0.36-2.23,0.26-4.49,0.08-6.73c-0.06-0.8-0.08-1.18-0.31-1.32 C308.06,128.59,307.71,128.65,307.05,128.78z"></path> <path class="st0" d="M330.74,176.38c0-4.93,0-9.87,0-14.8c0-9.19,0-18.38,0-27.58c0-4.26-0.03-8.52-0.01-12.78 c0.01-1.5,0.03-2.84,0.41-4.28c0.68-2.54,1.8-4.97,3.28-7.14c5.22-7.68,14.31-10.65,23.28-10.65c9.38,0,17.6,4.26,21.64,12.91 c3.09,6.61,3.99,14.11,3.4,21.33c-0.51,6.21-1.88,12.74-5.97,17.64c-3.1,3.72-7.47,6.03-12.26,6.65c-6.97,0.9-15.5-1.43-19.83-7.26 c0,0,0,17.93,0,17.94c0,1.47-0.35,3.08-0.84,4.45C342.01,177.98,335.07,176.38,330.74,176.38z M356.27,111.91 c-6.4,0-11.59,7.36-11.59,16.44s5.19,16.44,11.59,16.44c6.4,0,11.59-7.36,11.59-16.44S362.67,111.91,356.27,111.91z"></path> <path class="st0" d="M392.67,85.12c0,4.29,0,8.59,0,12.88c0,8.65,0,17.3,0,25.94c0,6.66,0,13.31,0,19.97 c0,4.81-0.44,12.84,6.46,12.84c7.69,0,16.92,0,16.92,0v-11.55c0,0-9.02,1.44-9.02-5.43s0-28.5,0-28.5s9.02,0.72,9.02-7.49 c0,0,0.31-2.77-2.46-2.77s-6.56,0-6.56,0v-9.43c0,0-0.31-6.46-6.36-6.46S392.67,85.12,392.67,85.12z"></path> <g> <path class="st0" d="M426.1,85.12v11.69h15.07c0,0,0-3.69,0-3.69c0-1.48-0.46-3.07-1.19-4.35 C437.3,84.01,430.57,85.12,426.1,85.12z"></path> <path class="st0" d="M426.07,101.22v55.54c0,0,15.11,0,15.11,0c0-5.26,0-10.53,0-15.79c0-8.71,0-17.42,0-26.13 c0-4.33,1.23-13.62-5.64-13.62C430.51,101.22,426.07,101.22,426.07,101.22z"></path> </g> <path class="st0" d="M451.32,101.22h14.87c0,0,0,32.72,0,32.81c0,5.12,2.04,10.57,7.78,11.21c4.83,0.54,9.23-1.86,10.5-6.65 c1.05-3.98,0.48-8.79,0.48-12.89c0-4.4,0-8.81,0-13.21c0-1.12,0-2.25,0-3.37c0,0-0.21-7.9,6.25-7.9s7.9,0,7.9,0v35.68 c0,0,1.54,19.86-23.89,19.86s-23.89-17.42-23.89-17.42V101.22z"></path> <path class="st0" d="M505.95,138.04c0-0.01,0-0.02,0-0.03c4.91,0.01,9.83,0.03,14.74,0.04c0.39,3.41,3.3,6.17,6.58,7.17 s6.86,0.52,10.14-0.49c1.54-0.47,3.27-1.33,3.5-2.93c0.26-1.86-1.7-3.21-3.44-3.92c-5.82-2.38-12.21-3.08-18.11-5.26 c-5.9-2.19-11.66-6.5-12.82-12.69c-1.04-5.56,2.04-11.29,6.54-14.72c8.81-6.71,23.26-8.11,32.34-1.3c4.67,3.5,7.85,8.92,8.64,14.7 c-3.19,0.01-6.38,0.03-9.57,0.04c-0.81,0-1.64,0-2.4-0.25c-1.16-0.39-2.04-1.32-2.93-2.15c-3.07-2.85-7.11-4.92-11.29-4.73 c-1.51,0.07-3.06,0.47-4.19,1.47c-1.13,1-1.71,2.71-1.09,4.08c0.7,1.56,2.56,2.16,4.22,2.6c2.43,0.64,4.86,1.29,7.28,1.93 c4.12,1.09,8.29,2.2,12.03,4.26c3.74,2.05,7.06,5.18,8.49,9.2c2.4,6.79-1.38,14.66-7.36,18.65s-13.62,4.73-20.78,4.02 c-4.76-0.47-9.66-1.62-13.36-4.65C508.69,149.49,506.59,143.7,505.95,138.04z"></path> </g> </svg> 